<svg width="98" height="18" viewBox="0 0 98 18" fill="none" xmlns="http://www.w3.org/2000/svg">
<path d="M6.966 4.47849C8.598 4.47849 9.798 4.80849 10.566 5.46849C11.346 6.12849 11.736 6.99249 11.736 8.06049C11.736 8.42049 11.688 8.82249 11.592 9.26649C11.364 10.2505 10.938 11.1145 10.314 11.8585C9.69 12.5905 8.922 13.1605 8.01 13.5685C7.11 13.9645 6.132 14.1625 5.076 14.1625C3.408 14.1625 2.172 13.8325 1.368 13.1725C0.576 12.5005 0.18 11.6125 0.18 10.5085C0.18 10.1365 0.228 9.72249 0.324 9.26649C0.552 8.33049 0.984 7.50249 1.62 6.78249C2.268 6.05049 3.054 5.48649 3.978 5.09049C4.914 4.68249 5.91 4.47849 6.966 4.47849ZM6.912 6.08049C6.66 6.08049 6.39 6.30849 6.102 6.76449C5.826 7.20849 5.496 8.05449 5.112 9.30249C4.728 10.5505 4.536 11.4265 4.536 11.9305C4.536 12.1945 4.578 12.3745 4.662 12.4705C4.746 12.5545 4.86 12.5965 5.004 12.5965C5.256 12.6205 5.514 12.4045 5.778 11.9485C6.054 11.4925 6.396 10.6045 6.804 9.28449C7.176 8.12049 7.362 7.27449 7.362 6.74649C7.362 6.49449 7.32 6.32049 7.236 6.22449C7.164 6.12849 7.056 6.08049 6.912 6.08049ZM22.4949 11.5165C22.4709 11.5645 22.4589 11.6365 22.4589 11.7325C22.4589 11.8165 22.4769 11.8825 22.5129 11.9305C22.5609 11.9785 22.6209 12.0025 22.6929 12.0025C22.8369 12.0025 22.9569 11.9425 23.0529 11.8225C23.1609 11.6905 23.2329 11.6245 23.2689 11.6245C23.3289 11.6245 23.3769 11.6665 23.4129 11.7505C23.4489 11.8225 23.4669 11.9125 23.4669 12.0205C23.4789 12.3685 23.3649 12.7105 23.1249 13.0465C22.8849 13.3705 22.5309 13.6405 22.0629 13.8565C21.6069 14.0605 21.0549 14.1625 20.4069 14.1625C19.6149 14.1625 18.9849 13.9825 18.5169 13.6225C18.0489 13.2505 17.8089 12.7585 17.7969 12.1465C17.7969 11.7025 17.9049 11.2045 18.1209 10.6525L19.1109 8.06049C19.1709 7.90449 19.2009 7.77849 19.2009 7.68249C19.2009 7.52649 19.1469 7.40649 19.0389 7.32249C18.9429 7.22649 18.8229 7.17849 18.6789 7.17849C18.4509 7.17849 18.2169 7.28649 17.9769 7.50249C17.7489 7.70649 17.5629 8.04249 17.4189 8.51049V8.47449L16.2849 12.1285C16.2489 12.2725 16.2309 12.3985 16.2309 12.5065C16.2309 12.6625 16.2609 12.7885 16.3209 12.8845C16.3809 12.9685 16.4649 13.0525 16.5729 13.1365C16.6569 13.2205 16.7169 13.2925 16.7529 13.3525C16.7889 13.4005 16.7949 13.4665 16.7709 13.5505C16.7109 13.7065 16.5909 13.8205 16.4109 13.8925C16.2309 13.9645 15.9549 14.0005 15.5829 14.0005H11.4789C11.1669 14.0005 10.9389 13.9525 10.7949 13.8565C10.6509 13.7485 10.6029 13.6105 10.6509 13.4425C10.6989 13.2985 10.8249 13.1725 11.0289 13.0645C11.2089 12.9685 11.3589 12.8545 11.4789 12.7225C11.5989 12.5905 11.7009 12.3805 11.7849 12.0925L14.5209 3.11049C14.5569 3.00249 14.5749 2.91249 14.5749 2.84049C14.5749 2.70849 14.5389 2.60049 14.4669 2.51649C14.4069 2.43249 14.3229 2.34849 14.2149 2.26449C14.0949 2.16849 14.0049 2.08449 13.9449 2.01249C13.8969 1.94049 13.8909 1.84449 13.9269 1.72449C13.9989 1.44849 14.3769 1.20849 15.0609 1.00449C15.7449 0.800488 16.4589 0.698488 17.2029 0.698488C17.8989 0.698488 18.4089 0.830488 18.7329 1.09449C19.0689 1.35849 19.2369 1.71849 19.2369 2.17449C19.2369 2.43849 19.1949 2.69649 19.1109 2.94849L18.1389 6.11649C18.6069 5.50449 19.0989 5.07849 19.6149 4.83849C20.1429 4.59849 20.7129 4.47849 21.3249 4.47849C22.0569 4.47849 22.6449 4.70049 23.0889 5.14449C23.5449 5.58849 23.7729 6.16449 23.7729 6.87249C23.7729 7.24449 23.7129 7.61049 23.5929 7.97049L22.4949 11.5165ZM41.3582 11.5165C41.3342 11.5645 41.3222 11.6365 41.3222 11.7325C41.3222 11.8165 41.3402 11.8825 41.3762 11.9305C41.4242 11.9785 41.4842 12.0025 41.5562 12.0025C41.7002 12.0025 41.8202 11.9425 41.9162 11.8225C42.0242 11.6905 42.0962 11.6245 42.1322 11.6245C42.1922 11.6245 42.2402 11.6665 42.2762 11.7505C42.3122 11.8225 42.3302 11.9125 42.3302 12.0205C42.3422 12.3685 42.2282 12.7105 41.9882 13.0465C41.7482 13.3705 41.3942 13.6405 40.9262 13.8565C40.4702 14.0605 39.9182 14.1625 39.2702 14.1625C38.4782 14.1625 37.8482 13.9825 37.3802 13.6225C36.9122 13.2505 36.6722 12.7585 36.6602 12.1465C36.6602 11.7025 36.7682 11.2045 36.9842 10.6525L37.9742 8.06049C38.0342 7.90449 38.0642 7.77849 38.0642 7.68249C38.0642 7.52649 38.0102 7.40649 37.9022 7.32249C37.8062 7.22649 37.6862 7.17849 37.5422 7.17849C37.3382 7.17849 37.1282 7.26849 36.9122 7.44849C36.6962 7.62849 36.5042 7.91049 36.3362 8.29449L35.3462 11.5165C35.3222 11.5645 35.3102 11.6365 35.3102 11.7325C35.3102 11.8165 35.3282 11.8825 35.3642 11.9305C35.4122 11.9785 35.4722 12.0025 35.5442 12.0025C35.6882 12.0025 35.8082 11.9425 35.9042 11.8225C36.0122 11.6905 36.0842 11.6245 36.1202 11.6245C36.1802 11.6245 36.2282 11.6665 36.2642 11.7505C36.3002 11.8225 36.3182 11.9125 36.3182 12.0205C36.3302 12.3685 36.2162 12.7105 35.9762 13.0465C35.7362 13.3705 35.3822 13.6405 34.9142 13.8565C34.4582 14.0605 33.9062 14.1625 33.2582 14.1625C32.4662 14.1625 31.8362 13.9825 31.3682 13.6225C30.9002 13.2505 30.6602 12.7585 30.6482 12.1465C30.6482 11.7025 30.7562 11.2045 30.9722 10.6525L31.9622 8.06049C32.0222 7.90449 32.0522 7.77849 32.0522 7.68249C32.0522 7.52649 31.9982 7.40649 31.8902 7.32249C31.7942 7.22649 31.6742 7.17849 31.5302 7.17849C31.3262 7.17849 31.1162 7.26849 30.9002 7.44849C30.6842 7.61649 30.5042 7.89249 30.3602 8.27649L29.1722 12.1285C29.1242 12.2605 29.1002 12.3865 29.1002 12.5065C29.1002 12.6505 29.1302 12.7705 29.1902 12.8665C29.2502 12.9505 29.3342 13.0405 29.4422 13.1365C29.5262 13.2085 29.5862 13.2745 29.6222 13.3345C29.6582 13.3945 29.6642 13.4665 29.6402 13.5505C29.5922 13.7065 29.4782 13.8205 29.2982 13.8925C29.1182 13.9645 28.8362 14.0005 28.4522 14.0005H24.3482C24.0362 14.0005 23.8142 13.9525 23.6822 13.8565C23.5382 13.7485 23.4842 13.6105 23.5202 13.4425C23.5682 13.2985 23.6942 13.1725 23.8982 13.0645C24.0782 12.9685 24.2282 12.8545 24.3482 12.7225C24.4682 12.5905 24.5702 12.3805 24.6542 12.0925L26.2562 6.89049C26.2802 6.83049 26.2922 6.74649 26.2922 6.63849C26.2922 6.50649 26.2622 6.40449 26.2022 6.33249C26.1542 6.26049 26.0702 6.17049 25.9502 6.06249C25.8302 5.96649 25.7462 5.88249 25.6982 5.81049C25.6502 5.73849 25.6442 5.64249 25.6802 5.52249C25.7522 5.24649 26.1302 5.00649 26.8142 4.80249C27.4982 4.58649 28.2122 4.47849 28.9562 4.47849C29.5442 4.47849 30.0062 4.64049 30.3422 4.96449C30.6902 5.28849 30.8582 5.73249 30.8462 6.29649C31.3382 5.61249 31.8542 5.13849 32.3942 4.87449C32.9462 4.61049 33.5402 4.47849 34.1762 4.47849C34.8722 4.47849 35.4362 4.68249 35.8682 5.09049C36.3122 5.48649 36.5582 6.00849 36.6062 6.65649C37.1222 5.84049 37.6742 5.27649 38.2622 4.96449C38.8502 4.64049 39.4922 4.47849 40.1882 4.47849C40.9202 4.47849 41.5082 4.70049 41.9522 5.14449C42.4082 5.58849 42.6362 6.16449 42.6362 6.87249C42.6362 7.24449 42.5762 7.61049 42.4562 7.97049L41.3582 11.5165ZM52.4658 4.47849C52.9938 4.47849 53.4138 4.69449 53.7258 5.12649C54.0498 5.54649 54.2118 6.12249 54.2118 6.85449C54.2118 7.49049 54.0978 8.17449 53.8698 8.90649C53.4258 10.3825 52.7118 11.7745 51.7278 13.0825C50.7558 14.3905 49.6338 15.4405 48.3618 16.2325C47.1018 17.0245 45.8418 17.4205 44.5818 17.4205C43.9578 17.4205 43.4178 17.3125 42.9618 17.0965C42.5178 16.8805 42.1818 16.5925 41.9538 16.2325C41.7138 15.8725 41.5938 15.4885 41.5938 15.0805C41.5938 14.9005 41.6238 14.7025 41.6838 14.4865C41.7918 14.1505 41.9718 13.8925 42.2238 13.7125C42.4758 13.5325 42.7758 13.4425 43.1238 13.4425C43.6758 13.4425 44.1258 13.6285 44.4738 14.0005C44.8338 14.3845 45.0618 14.9065 45.1578 15.5665C45.9258 15.5305 46.6338 15.2005 47.2818 14.5765C46.6698 14.4685 46.2138 14.2645 45.9138 13.9645C45.6258 13.6525 45.4278 13.1725 45.3198 12.5245L44.5998 8.11449C44.5638 7.88649 44.5098 7.73049 44.4378 7.64649C44.3778 7.55049 44.2938 7.50249 44.1858 7.50249C44.1018 7.50249 43.9998 7.54449 43.8798 7.62849C43.7718 7.71249 43.6938 7.75449 43.6458 7.75449C43.5498 7.75449 43.5018 7.65249 43.5018 7.44849C43.5018 7.28049 43.5318 7.10049 43.5918 6.90849C43.8078 6.22449 44.2098 5.64849 44.7978 5.18049C45.3858 4.70049 46.0698 4.46049 46.8498 4.46049C47.6178 4.46049 48.1818 4.68849 48.5418 5.14449C48.9138 5.60049 49.1538 6.30249 49.2618 7.25049L49.8018 11.2105C49.8378 11.5105 49.9458 11.6605 50.1258 11.6605C50.3418 11.6605 50.5938 11.4685 50.8818 11.0845C51.1698 10.6885 51.4518 10.1305 51.7278 9.41049C51.3678 9.08649 51.0918 8.71449 50.8998 8.29449C50.7078 7.87449 50.6118 7.42449 50.6118 6.94449C50.6118 6.57249 50.6598 6.23649 50.7558 5.93649C50.8998 5.45649 51.1218 5.09649 51.4218 4.85649C51.7338 4.60449 52.0818 4.47849 52.4658 4.47849ZM61.4319 0.698488C62.7159 0.698488 63.6759 0.896488 64.3119 1.29249C64.9599 1.67649 65.2839 2.15049 65.2839 2.71449C65.2839 3.17049 65.0919 3.52449 64.7079 3.77649C64.3359 4.01649 63.8439 4.13649 63.2319 4.13649C62.6679 4.13649 62.2299 3.99849 61.9179 3.72249C61.6059 3.44649 61.4499 3.10449 61.4499 2.69649C61.4499 2.44449 61.5279 2.18049 61.6839 1.90449C61.3239 1.90449 61.0239 1.99449 60.7839 2.17449C60.5439 2.34249 60.3579 2.63649 60.2259 3.05649C60.1539 3.32049 60.1179 3.56649 60.1179 3.79449C60.1179 4.08249 60.1659 4.31049 60.2619 4.47849C60.3699 4.63449 60.5199 4.71249 60.7119 4.71249H61.7739C62.3979 4.71249 62.7099 4.90449 62.7099 5.28849C62.7099 5.33649 62.6979 5.40849 62.6739 5.50449C62.6019 5.76849 62.4519 5.96649 62.2239 6.09849C62.0079 6.23049 61.6779 6.29649 61.2339 6.29649H60.6939L58.9119 12.1285C58.8759 12.2725 58.8579 12.3985 58.8579 12.5065C58.8579 12.6625 58.8879 12.7885 58.9479 12.8845C59.0079 12.9685 59.0919 13.0525 59.1999 13.1365C59.2839 13.2205 59.3439 13.2925 59.3799 13.3525C59.4159 13.4005 59.4219 13.4665 59.3979 13.5505C59.3379 13.7065 59.2179 13.8205 59.0379 13.8925C58.8579 13.9645 58.5819 14.0005 58.2099 14.0005H54.1059C53.7939 14.0005 53.5659 13.9525 53.4219 13.8565C53.2779 13.7485 53.2299 13.6105 53.2779 13.4425C53.3259 13.2985 53.4519 13.1725 53.6559 13.0645C53.8359 12.9685 53.9859 12.8545 54.1059 12.7225C54.2259 12.5905 54.3279 12.3805 54.4119 12.0925L55.8159 7.48449C55.8759 7.30449 55.9059 7.11849 55.9059 6.92649C55.9059 6.68649 55.8519 6.50049 55.7439 6.36849C55.6479 6.22449 55.4979 6.06849 55.2939 5.90049C55.1619 5.79249 55.0599 5.70249 54.9879 5.63049C54.9279 5.54649 54.8979 5.45049 54.8979 5.34249C54.8859 5.11449 54.9639 4.95249 55.1319 4.85649C55.3119 4.76049 55.6479 4.71249 56.1399 4.71249H56.5899C56.5059 4.41249 56.4639 4.11249 56.4639 3.81249C56.4639 3.51249 56.5179 3.20049 56.6259 2.87649C56.8539 2.26449 57.3399 1.74849 58.0839 1.32849C58.8399 0.908488 59.9559 0.698488 61.4319 0.698488ZM68.5422 4.47849C70.1742 4.47849 71.3742 4.80849 72.1422 5.46849C72.9222 6.12849 73.3122 6.99249 73.3122 8.06049C73.3122 8.42049 73.2642 8.82249 73.1682 9.26649C72.9402 10.2505 72.5142 11.1145 71.8902 11.8585C71.2662 12.5905 70.4982 13.1605 69.5862 13.5685C68.6862 13.9645 67.7082 14.1625 66.6522 14.1625C64.9842 14.1625 63.7482 13.8325 62.9442 13.1725C62.1522 12.5005 61.7562 11.6125 61.7562 10.5085C61.7562 10.1365 61.8042 9.72249 61.9002 9.26649C62.1282 8.33049 62.5602 7.50249 63.1962 6.78249C63.8442 6.05049 64.6302 5.48649 65.5542 5.09049C66.4902 4.68249 67.4862 4.47849 68.5422 4.47849ZM68.4882 6.08049C68.2362 6.08049 67.9662 6.30849 67.6782 6.76449C67.4022 7.20849 67.0722 8.05449 66.6882 9.30249C66.3042 10.5505 66.1122 11.4265 66.1122 11.9305C66.1122 12.1945 66.1542 12.3745 66.2382 12.4705C66.3222 12.5545 66.4362 12.5965 66.5802 12.5965C66.8322 12.6205 67.0902 12.4045 67.3542 11.9485C67.6302 11.4925 67.9722 10.6045 68.3802 9.28449C68.7522 8.12049 68.9382 7.27449 68.9382 6.74649C68.9382 6.49449 68.8962 6.32049 68.8122 6.22449C68.7402 6.12849 68.6322 6.08049 68.4882 6.08049ZM80.3547 4.47849C81.9867 4.47849 83.1867 4.80849 83.9547 5.46849C84.7347 6.12849 85.1247 6.99249 85.1247 8.06049C85.1247 8.42049 85.0767 8.82249 84.9807 9.26649C84.7527 10.2505 84.3267 11.1145 83.7027 11.8585C83.0787 12.5905 82.3107 13.1605 81.3987 13.5685C80.4987 13.9645 79.5207 14.1625 78.4647 14.1625C76.7967 14.1625 75.5607 13.8325 74.7567 13.1725C73.9647 12.5005 73.5687 11.6125 73.5687 10.5085C73.5687 10.1365 73.6167 9.72249 73.7127 9.26649C73.9407 8.33049 74.3727 7.50249 75.0087 6.78249C75.6567 6.05049 76.4427 5.48649 77.3667 5.09049C78.3027 4.68249 79.2987 4.47849 80.3547 4.47849ZM80.3007 6.08049C80.0487 6.08049 79.7787 6.30849 79.4907 6.76449C79.2147 7.20849 78.8847 8.05449 78.5007 9.30249C78.1167 10.5505 77.9247 11.4265 77.9247 11.9305C77.9247 12.1945 77.9667 12.3745 78.0507 12.4705C78.1347 12.5545 78.2487 12.5965 78.3927 12.5965C78.6447 12.6205 78.9027 12.4045 79.1667 11.9485C79.4427 11.4925 79.7847 10.6045 80.1927 9.28449C80.5647 8.12049 80.7507 7.27449 80.7507 6.74649C80.7507 6.49449 80.7087 6.32049 80.6247 6.22449C80.5527 6.12849 80.4447 6.08049 80.3007 6.08049ZM95.2632 11.4085C95.2392 11.5045 95.2272 11.5705 95.2272 11.6065C95.2272 11.6905 95.2512 11.7565 95.2992 11.8045C95.3472 11.8525 95.4072 11.8765 95.4792 11.8765C95.6232 11.8765 95.7432 11.8165 95.8392 11.6965C95.9472 11.5645 96.0192 11.4985 96.0552 11.4985C96.1152 11.4985 96.1632 11.5405 96.1992 11.6245C96.2352 11.7085 96.2532 11.8045 96.2532 11.9125C96.2652 12.2365 96.1392 12.5665 95.8752 12.9025C95.6232 13.2385 95.2812 13.5145 94.8492 13.7305C94.4172 13.9465 93.9492 14.0545 93.4452 14.0545C92.8452 14.0545 92.3232 13.9405 91.8792 13.7125C91.4352 13.4845 91.1292 13.1845 90.9612 12.8125C90.6372 13.2325 90.2652 13.5445 89.8452 13.7485C89.4252 13.9525 88.9812 14.0545 88.5132 14.0545C87.9612 14.0545 87.4452 13.9165 86.9652 13.6405C86.4972 13.3645 86.1192 12.9745 85.8312 12.4705C85.5552 11.9545 85.4172 11.3725 85.4172 10.7245C85.4172 9.63249 85.6212 8.60649 86.0292 7.64649C86.4492 6.67449 87.0312 5.89449 87.7752 5.30649C88.5192 4.70649 89.3652 4.40649 90.3132 4.40649C90.8292 4.40649 91.2672 4.46649 91.6272 4.58649C91.9992 4.70649 92.3352 4.88649 92.6352 5.12649L93.2472 3.11049C93.2832 3.00249 93.3012 2.91249 93.3012 2.84049C93.3012 2.70849 93.2652 2.60049 93.1932 2.51649C93.1332 2.43249 93.0492 2.34849 92.9412 2.26449C92.8212 2.16849 92.7312 2.08449 92.6712 2.01249C92.6232 1.94049 92.6172 1.84449 92.6532 1.72449C92.7252 1.44849 93.1032 1.20849 93.7872 1.00449C94.4712 0.800488 95.1852 0.698488 95.9292 0.698488C96.6252 0.698488 97.1352 0.830488 97.4592 1.09449C97.7952 1.35849 97.9632 1.71849 97.9632 2.17449C97.9632 2.43849 97.9212 2.69649 97.8372 2.94849L95.2632 11.4085ZM92.2572 6.35049C92.0652 6.18249 91.8552 6.09849 91.6272 6.09849C91.2792 6.09849 90.9372 6.35649 90.6012 6.87249C90.2652 7.38849 89.9952 8.01249 89.7912 8.74449C89.5872 9.47649 89.4912 10.1365 89.5032 10.7245C89.5032 11.3845 89.7192 11.7145 90.1512 11.7145C90.3072 11.7145 90.4392 11.6545 90.5472 11.5345C90.6552 11.4025 90.7572 11.1925 90.8532 10.9045L92.2572 6.35049Z" fill="white"/>
</svg>
